<svg width="600" height="393" viewBox="0 0 600 393" fill="none" xmlns="http://www.w3.org/2000/svg">
    <g clip-path="url(#clip0_12_182)">
        <path
            d="M583.756 392.132L584.646 392.115C584.302 382.221 583.246 372.365 581.487 362.623C577.64 341.765 571.242 328.066 562.471 321.908L561.96 322.636C582.448 337.022 583.746 391.582 583.756 392.132Z"
            fill="#E6FFE6" />
        <path
            d="M572.634 391.919L573.523 391.902C573.504 390.916 572.948 367.692 563.806 361.273L563.295 362.001C572.068 368.162 572.629 391.682 572.634 391.919Z"
            fill="#E6FFE6" />
        <path
            d="M556.899 322.717C559.356 322.717 561.347 320.725 561.347 318.268C561.347 315.811 559.356 313.819 556.899 313.819C554.442 313.819 552.45 315.811 552.45 318.268C552.45 320.725 554.442 322.717 556.899 322.717Z"
            fill="#E6FFE6" />
        <path
            d="M559.102 360.979C561.559 360.979 563.551 358.988 563.551 356.53C563.551 354.073 561.559 352.081 559.102 352.081C556.645 352.081 554.653 354.073 554.653 356.53C554.653 358.988 556.645 360.979 559.102 360.979Z"
            fill="#E6FFE6" />
        <path
            d="M574.707 325.384C574.262 328.816 574.725 332.305 576.051 335.502C578.366 332.913 579.884 329.71 580.421 326.279C580.959 322.847 580.492 319.334 579.078 316.161C576.839 318.8 575.332 321.98 574.707 325.384Z"
            fill="#E6FFE6" />
        <path
            d="M560.165 338.355C563.467 339.392 566.983 339.544 570.362 338.795C568.216 336.064 565.327 334.011 562.042 332.884C558.757 331.757 555.216 331.604 551.846 332.444C554.054 335.109 556.922 337.147 560.165 338.355Z"
            fill="#E6FFE6" />
        <path
            d="M560.001 372.24C562.315 372.967 564.78 373.073 567.148 372.549C565.644 370.634 563.619 369.195 561.316 368.405C559.014 367.615 556.532 367.508 554.17 368.097C555.717 369.965 557.728 371.393 560.001 372.24Z"
            fill="#E6FFE6" />
        <path
            d="M204.861 392.132L203.57 392.107C204.069 377.746 205.601 363.441 208.154 349.3C213.739 319.026 223.025 299.143 235.755 290.204L236.497 291.261C206.759 312.142 204.876 391.334 204.861 392.132Z"
            fill="#E6FFE6" />
        <path
            d="M221.005 391.823L219.713 391.798C219.741 390.367 220.548 356.659 233.818 347.341L234.56 348.398C221.825 357.34 221.011 391.479 221.005 391.823Z"
            fill="#E6FFE6" />
        <path
            d="M243.844 291.379C247.41 291.379 250.301 288.487 250.301 284.921C250.301 281.354 247.41 278.463 243.844 278.463C240.278 278.463 237.387 281.354 237.387 284.921C237.387 288.487 240.278 291.379 243.844 291.379Z"
            fill="#E6FFE6" />
        <path
            d="M240.646 346.915C244.213 346.915 247.104 344.024 247.104 340.457C247.104 336.891 244.213 334 240.646 334C237.08 334 234.189 336.891 234.189 340.457C234.189 344.024 237.08 346.915 240.646 346.915Z"
            fill="#E6FFE6" />
        <path
            d="M217.995 295.25C218.642 300.231 217.97 305.295 216.045 309.935C212.684 306.178 210.481 301.529 209.701 296.548C208.922 291.568 209.599 286.468 211.651 281.863C214.901 285.693 217.089 290.309 217.995 295.25Z"
            fill="#E6FFE6" />
        <path
            d="M239.102 314.077C234.31 315.582 229.207 315.802 224.303 314.716C227.417 310.751 231.61 307.771 236.379 306.136C241.147 304.5 246.287 304.278 251.178 305.497C247.973 309.365 243.809 312.323 239.102 314.077Z"
            fill="#E6FFE6" />
        <path
            d="M239.341 363.259C235.982 364.314 232.405 364.469 228.968 363.707C231.15 360.928 234.089 358.84 237.432 357.693C240.774 356.547 244.376 356.391 247.805 357.246C245.559 359.957 242.64 362.031 239.341 363.259Z"
            fill="#E6FFE6" />
        <path
            d="M105.094 117.126L101.987 98.1162L93.2137 95.9228C93.2137 95.9228 86.2508 93.778 84.6233 107.804C82.9959 121.829 84.2576 148.016 84.2576 148.016L64.996 209.015C63.517 209.718 62.2719 210.832 61.4097 212.225C60.5476 213.617 60.1049 215.228 60.1347 216.866C60.1645 218.503 60.6656 220.097 61.5778 221.457C62.4901 222.817 63.775 223.885 65.2786 224.534C66.7822 225.182 68.4409 225.384 70.0561 225.114C71.6713 224.844 73.1745 224.115 74.3858 223.013C75.5971 221.911 76.4652 220.483 76.8861 218.9C77.3071 217.318 77.263 215.647 76.7592 214.089L101.804 156.79L105.094 117.126Z"
            fill="#FFB7B7" />
        <path
            d="M158.442 102.166L153.836 83.4634L161.044 78.0013C161.044 78.0013 166.605 73.2948 173.609 85.555C180.612 97.8153 189.733 122.395 189.733 122.395L231.397 170.932C233.033 170.997 234.616 171.533 235.956 172.475C237.295 173.417 238.335 174.725 238.95 176.243C239.566 177.76 239.731 179.423 239.426 181.032C239.121 182.641 238.358 184.128 237.23 185.315C236.102 186.502 234.655 187.339 233.064 187.725C231.473 188.111 229.804 188.03 228.257 187.492C226.71 186.954 225.351 185.982 224.343 184.692C223.335 183.402 222.719 181.848 222.571 180.217L177.041 137.353L158.442 102.166Z"
            fill="#FFB7B7" />
        <path d="M194.447 382.171L204.895 382.17L209.866 341.869L194.445 341.87L194.447 382.171Z" fill="#FFB7B7" />
        <path
            d="M191.782 378.76L212.358 378.759H212.358C215.836 378.759 219.171 380.141 221.63 382.6C224.089 385.059 225.471 388.394 225.471 391.872V392.298L191.783 392.299L191.782 378.76Z"
            fill="#2F2E41" />
        <path d="M63.2077 382.171L73.6554 382.17L78.6261 341.869L63.2056 341.87L63.2077 382.171Z" fill="#FFB7B7" />
        <path
            d="M60.5425 378.76L81.1181 378.759H81.1189C84.5965 378.759 87.9315 380.141 90.3906 382.6C92.8496 385.059 94.2311 388.394 94.2314 391.872V392.298L60.5431 392.299L60.5425 378.76Z"
            fill="#2F2E41" />
        <path
            d="M127.286 66.3472C142.892 66.3472 155.544 53.695 155.544 38.0877C155.544 22.4804 142.892 9.82817 127.286 9.82817C111.679 9.82817 99.0278 22.4804 99.0278 38.0877C99.0278 53.695 111.679 66.3472 127.286 66.3472Z"
            fill="#2F2E41" />
        <path
            d="M105.229 22.8509C109.795 18.2843 110.721 11.8058 107.296 8.38082C103.871 4.95585 97.3931 5.88134 92.8268 10.448C88.2604 15.0146 87.3349 21.4931 90.7597 24.9181C94.1845 28.343 100.663 27.4175 105.229 22.8509Z"
            fill="#2F2E41" />
        <path
            d="M156.738 13.8767C158.641 9.42243 155.369 3.75492 149.43 1.21798C143.491 -1.31896 137.135 0.235343 135.232 4.68962C133.329 9.1439 136.601 14.8114 142.54 17.3484C148.479 19.8853 154.835 18.331 156.738 13.8767Z"
            fill="#2F2E41" />
        <path
            d="M149.225 56.3378C155.578 44.7153 151.307 30.1429 139.685 23.7894C128.063 17.436 113.492 21.7074 107.139 33.33C100.786 44.9525 105.057 59.5249 116.679 65.8784C128.301 72.2318 142.872 67.9604 149.225 56.3378Z"
            fill="#FFB7B7" />
        <path
            d="M102.982 29.7483C108.462 33.5257 114.967 35.536 121.623 35.5094C119.249 37.1557 116.546 38.2678 113.701 38.7689C122.55 40.6673 131.696 40.7187 140.566 38.9199C142.538 38.6037 144.44 37.9503 146.19 36.9882C147.062 36.5012 147.822 35.8361 148.42 35.0362C149.018 34.2363 149.441 33.3194 149.662 32.3452C150.251 28.9778 147.627 25.9184 144.9 23.8566C140.726 20.7479 135.912 18.6061 130.808 17.5861C125.704 16.5661 120.437 16.6934 115.388 17.9589C112.092 18.8111 108.789 20.251 106.648 22.8986C104.506 25.5463 103.872 29.6281 105.912 32.3545L102.982 29.7483Z"
            fill="#2F2E41" />
        <path
            d="M116.163 76.022L92.4259 95.4084L113.166 144.863L113.562 152.776C113.562 152.776 92.0315 172.628 78.71 228.084C65.3884 283.54 38.4827 357.228 38.4827 357.228L92.3088 370.396L129.733 244.949L177.44 343.366L184.227 372.475L225.835 360.924L209.777 282.806L170.391 161.548L173.626 128.049C173.626 128.049 180.833 111.329 168.312 93.6265L164.385 76.9926L144.056 73.5272L116.163 76.022Z"
            fill="var(--primary, #62a264)" />
        <path
            d="M515.313 252.021H350.516C349.2 252.019 347.938 251.496 347.007 250.565C346.077 249.634 345.553 248.373 345.552 247.057V191.459C345.553 190.143 346.077 188.881 347.007 187.951C347.938 187.02 349.2 186.497 350.516 186.495H515.313C516.629 186.497 517.891 187.02 518.822 187.951C519.752 188.881 520.276 190.143 520.277 191.459V247.057C520.276 248.373 519.752 249.634 518.822 250.565C517.891 251.496 516.629 252.019 515.313 252.021Z"
            fill="#E5E5E5" />
        <path d="M415.045 201.387H371.364V206.351H415.045V201.387Z" fill="#E6FFE6" />
        <path
            d="M472.625 207.344C474.27 207.344 475.603 206.011 475.603 204.366C475.603 202.721 474.27 201.387 472.625 201.387C470.98 201.387 469.646 202.721 469.646 204.366C469.646 206.011 470.98 207.344 472.625 207.344Z"
            fill="#0084CB" />
        <path
            d="M482.552 207.344C484.197 207.344 485.531 206.011 485.531 204.366C485.531 202.721 484.197 201.387 482.552 201.387C480.907 201.387 479.574 202.721 479.574 204.366C479.574 206.011 480.907 207.344 482.552 207.344Z"
            fill="#0084CB" />
        <path
            d="M492.48 207.344C494.125 207.344 495.458 206.011 495.458 204.366C495.458 202.721 494.125 201.387 492.48 201.387C490.835 201.387 489.501 202.721 489.501 204.366C489.501 206.011 490.835 207.344 492.48 207.344Z"
            fill="#0084CB" />
        <path
            d="M515.313 322.51H350.516C349.2 322.509 347.938 321.985 347.007 321.055C346.077 320.124 345.553 318.862 345.552 317.546V261.949C345.553 260.633 346.077 259.371 347.007 258.44C347.938 257.51 349.2 256.986 350.516 256.985H515.313C516.629 256.986 517.891 257.51 518.822 258.44C519.752 259.371 520.276 260.633 520.277 261.949V317.546C520.276 318.862 519.752 320.124 518.822 321.055C517.891 321.985 516.629 322.509 515.313 322.51Z"
            fill="#E5E5E5" />
        <path d="M415.045 271.877H371.364V276.841H415.045V271.877Z" fill="#E6FFE6" />
        <path
            d="M472.625 277.834C474.27 277.834 475.603 276.5 475.603 274.855C475.603 273.21 474.27 271.877 472.625 271.877C470.98 271.877 469.646 273.21 469.646 274.855C469.646 276.5 470.98 277.834 472.625 277.834Z"
            fill="#0084CB" />
        <path
            d="M482.552 277.834C484.197 277.834 485.531 276.5 485.531 274.855C485.531 273.21 484.197 271.877 482.552 271.877C480.907 271.877 479.574 273.21 479.574 274.855C479.574 276.5 480.907 277.834 482.552 277.834Z"
            fill="#0084CB" />
        <path
            d="M492.48 277.834C494.125 277.834 495.458 276.5 495.458 274.855C495.458 273.21 494.125 271.877 492.48 271.877C490.835 271.877 489.501 273.21 489.501 274.855C489.501 276.5 490.835 277.834 492.48 277.834Z"
            fill="#0084CB" />
        <path
            d="M515.313 393H350.516C349.2 392.998 347.938 392.475 347.007 391.544C346.077 390.614 345.553 389.352 345.552 388.036V332.438C345.553 331.122 346.077 329.861 347.007 328.93C347.938 327.999 349.2 327.476 350.516 327.474H515.313C516.629 327.476 517.891 327.999 518.822 328.93C519.752 329.861 520.276 331.122 520.277 332.438V388.036C520.276 389.352 519.752 390.614 518.822 391.544C517.891 392.475 516.629 392.999 515.313 393Z"
            fill="#E5E5E5" />
        <path d="M415.045 342.367H371.364V347.331H415.045V342.367Z" fill="#E6FFE6" />
        <path
            d="M472.625 348.323C474.27 348.323 475.603 346.99 475.603 345.345C475.603 343.7 474.27 342.367 472.625 342.367C470.98 342.367 469.646 343.7 469.646 345.345C469.646 346.99 470.98 348.323 472.625 348.323Z"
            fill="#0084CB" />
        <path
            d="M482.552 348.323C484.197 348.323 485.531 346.99 485.531 345.345C485.531 343.7 484.197 342.367 482.552 342.367C480.907 342.367 479.574 343.7 479.574 345.345C479.574 346.99 480.907 348.323 482.552 348.323Z"
            fill="#0084CB" />
        <path
            d="M492.48 348.323C494.125 348.323 495.458 346.99 495.458 345.345C495.458 343.7 494.125 342.367 492.48 342.367C490.835 342.367 489.501 343.7 489.501 345.345C489.501 346.99 490.835 348.323 492.48 348.323Z"
            fill="#0084CB" />
        <path
            d="M317.557 273.121C314.418 273.11 311.293 272.706 308.255 271.917L307.656 271.751L307.1 271.473C287.017 261.403 270.075 248.103 256.742 231.94C245.706 218.483 237.102 203.203 231.316 186.788C224.397 167.136 221.069 146.4 221.489 125.569C221.498 125.132 221.505 124.794 221.505 124.562C221.505 114.436 227.125 105.551 235.823 101.926C242.48 99.1525 302.924 74.3247 307.291 72.5308C315.515 68.4096 324.29 71.8495 325.694 72.4509C328.843 73.7387 384.719 96.5939 396.794 102.344C409.238 108.27 412.559 118.916 412.559 124.272C412.559 148.522 408.359 171.185 400.077 191.632C393.388 208.182 383.907 223.462 372.049 236.804C349.169 262.554 326.283 271.682 326.062 271.762C323.327 272.704 320.449 273.163 317.557 273.121ZM312.175 259.788C314.159 260.233 318.727 260.9 321.704 259.814C325.487 258.435 344.642 248.501 362.542 228.356C387.274 200.523 399.823 165.534 399.841 124.362C399.797 123.528 399.204 117.579 391.326 113.827C379.486 108.188 321.407 84.4388 320.822 84.1994L320.662 84.1314C319.444 83.6213 315.571 82.5469 312.901 83.9462L312.366 84.1955C311.719 84.4613 247.558 110.815 240.715 113.666C235.928 115.661 234.223 120.602 234.223 124.562C234.223 124.851 234.215 125.272 234.204 125.816C233.658 153.987 240.176 223.309 312.175 259.788Z"
            fill="#3F3D56" />
        <path
            d="M309.95 78.313C309.95 78.313 245.206 104.906 238.269 107.796C231.332 110.687 227.864 117.624 227.864 124.562C227.864 131.499 222.661 222.021 309.95 265.788C309.95 265.788 317.873 267.98 323.883 265.788C329.894 263.596 406.2 226.597 406.2 124.272C406.2 124.272 406.2 113.867 394.06 108.086C381.921 102.304 323.228 78.313 323.228 78.313C323.228 78.313 316.02 75.1335 309.95 78.313Z"
            fill="#0084CB" />
        <path opacity="0.2" d="M316.887 99.1249V240.989C316.887 240.989 382.21 209.543 381.632 126.874L316.887 99.1249Z"
            fill="black" />
        <path
            d="M599.274 393H0.726392C0.533741 393 0.34898 392.923 0.212755 392.787C0.0765298 392.651 0 392.466 0 392.274C0 392.081 0.0765298 391.896 0.212755 391.76C0.34898 391.624 0.533741 391.547 0.726392 391.547H599.274C599.466 391.547 599.651 391.624 599.787 391.76C599.923 391.896 600 392.081 600 392.274C600 392.466 599.923 392.651 599.787 392.787C599.651 392.923 599.466 393 599.274 393Z"
            fill="#CBCBCB" />
    </g>
    <defs>
        <clipPath id="clip0_12_182">
            <rect width="600" height="393" fill="white" />
        </clipPath>
    </defs>
</svg>